<?xml version="1.0" encoding="UTF-8"?>
<svg id="Layer_2" data-name="Layer 2" xmlns="http://www.w3.org/2000/svg" xmlns:xlink="http://www.w3.org/1999/xlink" viewBox="0 0 650 814.06">
  <defs>
    <style>
      .cls-1 {
        fill: url(#linear-gradient-5);
      }

      .cls-2 {
        fill: url(#linear-gradient-4);
      }

      .cls-3 {
        fill: url(#linear-gradient-3);
      }

      .cls-4 {
        fill: url(#linear-gradient-2);
      }

      .cls-5 {
        fill: url(#linear-gradient);
      }
    </style>
    <linearGradient id="linear-gradient" x1="627.92" y1="210.82" x2="22.95" y2="219.83" gradientUnits="userSpaceOnUse">
      <stop offset=".12" stop-color="#fcfdff"/>
      <stop offset=".63" stop-color="#f9fbff"/>
      <stop offset="1" stop-color="#f7faff"/>
    </linearGradient>
    <linearGradient id="linear-gradient-2" x1="357" y1="612.86" x2="219.64" y2="801.61" gradientUnits="userSpaceOnUse">
      <stop offset="0" stop-color="#f8fbff"/>
      <stop offset=".86" stop-color="#f7faff"/>
    </linearGradient>
    <linearGradient id="linear-gradient-3" x1="363.2" y1="483.95" x2="250.55" y2="632.17" gradientUnits="userSpaceOnUse">
      <stop offset="0" stop-color="#f9fbff"/>
      <stop offset="1" stop-color="#f7faff"/>
    </linearGradient>
    <linearGradient id="linear-gradient-4" x1="422.4" y1="388.43" x2="306.79" y2="580.49" gradientUnits="userSpaceOnUse">
      <stop offset="0" stop-color="#fcfdff"/>
      <stop offset="1" stop-color="#f9fbff"/>
    </linearGradient>
    <linearGradient id="linear-gradient-5" x1="407.35" y1="253.5" x2="284.27" y2="402" gradientUnits="userSpaceOnUse">
      <stop offset="0" stop-color="#fcfdff"/>
      <stop offset="1" stop-color="#fafcff"/>
    </linearGradient>
  </defs>
  <g id="Layer_1-2" data-name="Layer 1">
    <g id="Generative_Object" data-name="Generative Object">
      <path class="cls-5" d="M333.19,4.21l233.77,113.87,28.72,14.01,52.57,25.42c.64.7,1.07.44,1.74.18v1.91c-1.13-.66-1.12-.32-2.38.28l-68.43,32.44-62.96,29.65-.26-51.64c-14.58-9.15-29.22-15.95-44.82-22.69-46.9-18.66-97.34-28.33-148.62-26.66-58.25,1.9-114.85,17.58-164.32,47.19,33.34-14.59,67.09-25.87,103.13-30.93,45.35-7.14,91.22-5.89,136.08,3.91,36.11,7.98,70.39,21.1,101.97,39.88l-.07,111.54-12.88-11.2c-22.64-18.06-48.17-31.69-76.16-40.38-51.36-15.94-106.14-17.38-158.05-4.18-24.45,6.53-47.08,16.51-67.81,30.85-12.64,8.76-23.53,18.63-33.88,30.62l-.15-77.45-67.14-27.37-.09,78.59c8.04,2.95,13.04,10.03,13.74,17.68.76,8.33-3.22,16.14-10.69,20.48l14.31,78.84,6.3,36.02c-19.95,12.64-41.9,12.24-62.06-.15l20.66-114.6c-7.33-4.65-11.28-12.3-10.66-20.32s5.63-14.74,13.63-17.96l.03-84.76L0,159v-.79c.99.1,1.35-.14,2.7-.81L316.91,4.26l8.09-4.26,8.19,4.21Z"/>
      <path class="cls-4" d="M262.48,809.87c-19.71-2.91-50.55-9.89-83.97-28.46-33.86-18.81-56.25-41.69-69.13-57.01l55.65-74.15c37.93,44.5,91.11,72.1,149.61,73.6,18.89.34,36.73-1.98,53.95-8.42,38.31-14.32,59.19-49.22,47.75-90.72,9.08,10.28,14.08,22.29,17.65,35.15,11.65,41.89-2.53,89.81-34.05,119.23-22.42,20.93-47.54,26.96-62.35,30.51-32.56,7.81-60.07,3.68-75.11.27Z"/>
      <path class="cls-3" d="M479.56,763.3c-.97,2.29-3.77,3.98-6.06,5.79-20.7,16.42-44.26,28.07-69.68,35.92,50.14-37.98,69.19-98.46,49.88-158.54-14.77-41.9-46.31-64.5-85.43-81.91-10.63-4.73-20.95-8.62-31.97-12.28l-38.38-12.76c-21.77-7.24-42.6-15.24-63.46-24.91-18.66-8.65-35.77-18.87-51.66-31.95-22.06-18.16-37.43-42.22-42.31-70.45-4.43-25.66-1.34-51.13,9.04-74.64,9.08-20.57,23.92-37.41,41.44-50.89.77.5.4,1.21.11,1.78-6.09,8.22-10.46,16.55-14.35,25.94-15.85,38.17-8.18,81.62,20.56,111.23,12.78,13.16,27.66,23.22,44.02,31.66,23.09,11.91,46.64,21.14,71.26,29.66l63.89,22.1c53.38,18.46,102.33,46.85,123.43,102.17,6.66,17.47,9.98,35.26,10.91,54.02,1.35,27.25-4.88,54.07-18.28,77.7l-9.3,13.69c-1.6,2.36-2.67,4.34-3.66,6.68Z"/>
      <path class="cls-2" d="M294.04,248.31c.02.22.09.83-.12,1.06-1.04,1.12-21.78,3.08-44.09,21.71-15.73,13.14-26.72,30.74-28.27,51.23-1.49,19.69,3.34,38.09,12.95,54.76,5.26,9.12,11.9,17.05,19.45,24.82l6.2,4.77,8.02,6.92c18.3,15.8,59.67,29.01,84.7,37.54l57.64,19.65c32.75,11.17,71.22,33.45,94.86,60.59,30.83,35.39,40.28,84.01,31.99,130.63-6.77,38.07-25.96,71.85-54.23,98.53-5.17,4.88-8.05,8.14-9.95,8.07.99-2.34,8.15-9.61,9.75-11.97l9.3-13.69c13.4-23.62,19.63-50.45,18.28-77.7-.93-18.76-4.25-36.55-10.91-54.02-21.1-55.31-70.05-83.71-123.43-102.17l-63.89-22.1c-24.63-8.52-48.18-17.74-71.26-29.66-16.36-8.44-31.24-18.5-44.02-31.66-28.74-29.61-36.41-73.05-20.56-111.23,3.9-9.39,8.26-17.72,14.35-25.94.29-.58.66-1.28-.11-1.78,28.98-22.29,63.64-33.8,100.59-38.05l2.75-.32Z"/>
      <path class="cls-1" d="M260.44,406.67l-7.61-3.37c-9.83-6.32-16.5-16.38-21.76-25.51-9.62-16.67-13.66-36.23-12.17-55.93,1.55-20.49,13.08-38.5,28.81-51.63,22.31-18.63,45.45-19.74,46.49-20.85.22-.23.14-.84.12-1.06,42.94-4.94,94.19,1.99,133.38,19.4,27.17,12.07,51.81,29.39,71.71,53.08l-22.87,26.57c-25.19-25.96-55.64-42.92-89.96-51.11-38.44-9.17-83.18-9.54-115.29,14-20.25,14.84-30.31,38.45-26.76,63.31,1.77,12.41,6.81,23.23,15.59,31.87.36.35.37.88.32,1.25Z"/>
    </g>
  </g>
</svg>